<?xml version="1.0" encoding="UTF-8"?>
<svg xmlns="http://www.w3.org/2000/svg" xmlns:xlink="http://www.w3.org/1999/xlink" width="556" height="581" viewBox="1223.817783622251 167.02461047211102 278.1272718109817 290.698991426533">
<defs><pattern id="fh-grid" width="7.30208333333325" height="7.30208333333325" patternUnits="userSpaceOnUse" x="-6.48635461618121" y="0.09370210825415626"><circle cx="1" cy="1" r="0.5" fill="rgba(255,255,255,0.04)"></circle></pattern><linearGradient id="fh-fill-grad-fh_1777458632245_35" gradientUnits="objectBoundingBox" x1="0.019054199059163453" y1="0.05648236460200808" x2="1" y2="1"><stop offset="0%" stop-color="#63d4fd" stop-opacity="1"></stop><stop offset="100%" stop-color="#0b20bc" stop-opacity="1"></stop></linearGradient><linearGradient id="fh-fill-grad-fh_1777458785297_42" gradientUnits="objectBoundingBox" x1="0" y1="0.5" x2="1" y2="1"><stop offset="0%" stop-color="#2f46d3" stop-opacity="1"></stop><stop offset="100%" stop-color="#4de7ef" stop-opacity="1"></stop></linearGradient><linearGradient id="fh-fill-grad-fh_1777459317809_49" gradientUnits="objectBoundingBox" x1="0.8011611142366291" y1="0.30273119870912774" x2="0.08222324764352093" y2="0.8856867480777647"><stop offset="0%" stop-color="#d899ff" stop-opacity="1"></stop><stop offset="100%" stop-color="#5529e8" stop-opacity="1"></stop></linearGradient><linearGradient id="fh-fill-grad-fh_1777460163297_4" gradientUnits="objectBoundingBox" x1="0.6780335374504078" y1="0.8660910460048703" x2="0.11644017849746159" y2="0.16767499849599532"><stop offset="0%" stop-color="#fd852e" stop-opacity="1"></stop><stop offset="100%" stop-color="#f53a25" stop-opacity="1"></stop></linearGradient><linearGradient id="fh-fill-grad-fh_1777460168603_5" gradientUnits="objectBoundingBox" x1="0.1583135931702318" y1="0.1661526878484938" x2="0.917050724381736" y2="1"><stop offset="0%" stop-color="#fdb04b" stop-opacity="1"></stop><stop offset="100%" stop-color="#fc570f" stop-opacity="1"></stop></linearGradient><linearGradient id="fh-fill-grad-fh_1777498761797_53" gradientUnits="objectBoundingBox" x1="0.5854279026363146" y1="0.39961955190058984" x2="0.16772442480136926" y2="0.969808596042261"><stop offset="0%" stop-color="#9a9aa2" stop-opacity="1"></stop><stop offset="100%" stop-color="#383c4c" stop-opacity="1"></stop></linearGradient><linearGradient id="fh-fill-grad-fh_1777461729270_24" gradientUnits="objectBoundingBox" x1="0" y1="1" x2="0.5163529383120135" y2="0.4252584276988135"><stop offset="0%" stop-color="#c1ecfb" stop-opacity="1"></stop><stop offset="100%" stop-color="#ffffff" stop-opacity="1"></stop></linearGradient><linearGradient id="fh-fill-grad-fh_1777497263725_15" gradientUnits="objectBoundingBox" x1="0.7066726605439194" y1="0.3695723323556266" x2="0.5428151423846622" y2="0.8473839156356124"><stop offset="0%" stop-color="#9a9aa1" stop-opacity="1"></stop><stop offset="100%" stop-color="#5c5f6b" stop-opacity="1"></stop></linearGradient><linearGradient id="fh-fill-grad-fh_1777497285107_16" gradientUnits="objectBoundingBox" x1="0.207705178207443" y1="0.05533476344749204" x2="0.5742378550926254" y2="0.7213639981191351"><stop offset="0%" stop-color="#9a9aa1" stop-opacity="1"></stop><stop offset="100%" stop-color="#70727d" stop-opacity="1"></stop></linearGradient><linearGradient id="fh-fill-grad-fh_1777498589507_49" gradientUnits="objectBoundingBox" x1="0.07450379063873125" y1="0.9500261243498505" x2="0.5836788420127257" y2="0"><stop offset="0%" stop-color="#9b9ba2" stop-opacity="1"></stop><stop offset="100%" stop-color="#626571" stop-opacity="1"></stop></linearGradient><linearGradient id="fh-fill-grad-fh_1777499718901_1" gradientUnits="objectBoundingBox" x1="0.6601776053653527" y1="0.19267630719408366" x2="0.5428151423846622" y2="0.8473839156356124"><stop offset="0%" stop-color="#9a9aa1" stop-opacity="1"></stop><stop offset="100%" stop-color="#505361" stop-opacity="1"></stop></linearGradient><linearGradient id="fh-fill-grad-fh_1777499718901_2" gradientUnits="objectBoundingBox" x1="0.6600727883453245" y1="0.13680590231074433" x2="0.6069265141644169" y2="1"><stop offset="0%" stop-color="#9a9aa1" stop-opacity="1"></stop><stop offset="100%" stop-color="#575967" stop-opacity="1"></stop></linearGradient><linearGradient id="fh-fill-grad-fh_1777499718901_3" gradientUnits="objectBoundingBox" x1="0.07450379063873125" y1="0.9500261243498505" x2="0.5836788420127257" y2="0"><stop offset="0%" stop-color="#9b9aa2" stop-opacity="1"></stop><stop offset="100%" stop-color="#5a5b69" stop-opacity="1"></stop></linearGradient><clipPath id="fh-page-content-clip" clipPathUnits="userSpaceOnUse"><rect x="0" y="0" width="1920" height="1080"></rect></clipPath><filter id="fh-selection-shadow" x="-40%" y="-40%" width="180%" height="180%"><feDropShadow dx="0" dy="2" stdDeviation="3" flood-color="#000" flood-opacity="0.35"></feDropShadow></filter></defs>
<g><g data-fh-page-content="1"><g data-fh-obj="fh_1777498761797_53"><path d="M 1319.8752175026286 167.02461902208162 C 1343.423407643762 167.02461902208162 1362.512986435887 206.63591455664465 1362.512986435887 221.13118414197305 C 1362.512986435887 235.62645372730142 1364.63040567294 234.3776450232847 1364.63040567294 221.13117559200245 C 1364.63040567294 191.2489428888295 1383.7199844650647 167.02461047211105 1407.2681746061983 167.02461047211105 C 1423.3838321924304 167.02461047211105 1437.4112384927168 178.3703444920469 1444.6607172953697 195.11069100416444 C 1468.8262570653112 202.3200433035229 1486.8162372460858 229.8536931359739 1486.8162372460858 262.71933547602333 C 1486.8162372460858 277.07382124565726 1483.384437212255 290.4111683143145 1477.5051974900202 301.4822516290667 C 1483.3844537849545 312.55333494381887 1486.8162372460858 325.89068201247613 1486.8162372460858 340.24516778211006 C 1486.8162372460858 372.88426155150137 1469.0734140191978 400.2646189612883 1445.1595804091537 407.7018279768048 C 1438.619396572095 426.9270353408391 1424.6603277981674 448.39454944119217 1407.1100379076374 448.39454944119217 C 1407.1100379076374 448.39454944119217 1385.3706004755031 457.723601898644 1374.785758177368 438.09357907720124 C 1364.2009075928834 418.4635648057291 1365.522480941241 342.5460589168947 1365.3228296304503 316.91865922681905 C 1365.3191836365622 316.45024053820987 1365.3157613741168 316.03316442297887 1365.3124799796174 315.6658320366262 C 1373.0864184304207 314.9610579610949 1379.1827356569627 308.2503142964903 1379.1827356569627 300.07588406706276 C 1379.1827356569627 291.4320262524967 1372.3661440514124 284.4247952578278 1363.9574546373335 284.4247952578278 C 1355.5487652232541 284.4247952578278 1348.7321736177041 291.4320262524967 1348.7321736177041 300.07588406706276 C 1348.7321736177041 308.7197418816288 1355.5487652232541 315.72697287629774 1363.9574546373335 315.72697287629774 C 1364.3816163081533 315.72697287629774 1364.8017259539472 315.7091461876227 1365.2171123803857 315.67417680791965 C 1364.9255985963064 330.8592494702805 1363.5340884560892 422.4730393128756 1353.1560237295264 438.0935961771424 C 1340.708045409007 456.82969392374565 1288.4594034404581 429.0369628825509 1281.2099246378052 412.29661637043336 C 1257.0443848678638 405.0872640710749 1239.0544046870893 377.55361423862394 1239.0544046870893 344.6879718985745 C 1239.0544046870893 330.3334861289406 1242.48620472092 316.9961390602834 1248.3654444431547 305.9250557455311 C 1242.4861881482207 294.8539724307789 1239.0544046870893 281.51662536212166 1239.0544046870893 267.16213959248773 C 1239.0544046870893 234.52304582309648 1256.7972279139772 207.14268841330957 1280.7110615240215 199.70547939779303 C 1287.2512453610802 180.48027203375872 1302.3249441847981 167.02461047211102 1319.875234075328 167.02461047211102 C 1319.875234075328 167.02461047211102 1319.8752175026286 167.02461902208162 1319.8752175026286 167.02461902208162 Z" fill="url(#fh-fill-grad-fh_1777498761797_53)" stroke="none" stroke-width="0" stroke-linecap="round" stroke-linejoin="round" opacity="1"></path></g><g data-fh-obj="fh_1777497263725_15"><path d="M 1448.9601215405128 404.0898491331372 C 1419.1457053469892 411.1343268626057 1378.666986027533 387.16058456188875 1371.187506149445 363.7625287215075 C 1363.7080262713569 340.3644728811263 1375.852802748105 326.5824292101408 1378.1234998102816 308.8277507091816 C 1383.1054051629794 322.01194403914917 1385.7641938844451 331.5450533993198 1399.649142289152 344.32910653007525 C 1413.534090693859 357.11315966083066 1432.516471897657 365.19131886810044 1453.649811545922 361.8134794672852 C 1474.7831511941868 358.43564006647 1477.8658995996632 356.54848800301215 1483.1216356847785 350.4514170880512 C 1488.2109121973726 375.34545376464797 1474.6215499774319 398.0266292479365 1448.9601215405128 404.0898491331372 Z" fill="url(#fh-fill-grad-fh_1777497263725_15)" stroke="none" stroke-width="0" stroke-linecap="round" stroke-linejoin="round" opacity="1"></path></g><g data-fh-obj="fh_1777497285107_16"><path d="M 1485.3480054847053 295.0145970926824 C 1466.0649263698185 316.4667146202785 1435.4431922533706 325.60165315294336 1399.189256609979 300.192124362628 C 1362.9353209665876 274.78259557231274 1372.6518866832973 220.92016225749802 1380.6518427410958 219.1431684989904 C 1378.457100436314 229.0923540152483 1395.260585943558 262.2974202592751 1424.2038593210277 268.6014659208226 C 1447.3927918449522 272.6881976831416 1477.1791263154064 268.8440390568693 1480.8093583849106 250.5589647866496 C 1484.4395904544156 232.27389051643007 1475.9506532176435 231.4861640714724 1475.9995684827293 222.60856064067008 C 1497.2988906056237 246.3371296523015 1501.9450554332327 276.55064411162897 1485.3480054847053 295.0145970926824 Z" fill="url(#fh-fill-grad-fh_1777497285107_16)" stroke="none" stroke-width="0" stroke-linecap="round" stroke-linejoin="round" opacity="1"></path></g><g data-fh-obj="fh_1777498589507_49"><path d="M 1445.221841928574 194.06767193166337 C 1444.3793159176973 206.03773228306028 1429.5032645501356 214.88502228481798 1411.995249458011 213.8286470776324 C 1397.098371647885 212.9298191807929 1385.095875951104 205.1507027249932 1382.366117315468 195.47688581029345 C 1386.407690809745 197.4256253738858 1391.2035493434987 198.69453185049287 1396.4012763719402 199.00814535480342 C 1411.7525069258306 199.93438738004664 1424.79600071907 192.17698131503386 1425.5347373376949 181.6814929923369 C 1425.7923361332062 178.02169722471328 1424.5197455542218 174.5122296948351 1422.1019201684098 171.4539885261058 C 1436.0395931127803 174.50686493942797 1445.9470085994224 183.7649765812279 1445.221841928574 194.06767193166337 Z" fill="url(#fh-fill-grad-fh_1777498589507_49)" stroke="none" stroke-width="0" stroke-linecap="round" stroke-linejoin="round" opacity="1"></path></g><g data-fh-obj="fh_1777499718901_1"><path d="M 1277.143226338794 402.4952730336991 C 1307.1464914464916 409.53975076316755 1347.8816089506727 385.5660084624506 1355.4084649586302 362.16795262206944 C 1362.9353209665876 338.7698967816882 1350.713617682498 324.9878531107027 1348.428537689868 307.2331746097435 C 1343.415076213104 320.4173679397111 1340.7394463313144 329.9504772998817 1326.766548613343 342.7345304306371 C 1312.793650895372 355.5185835613926 1293.6910324863404 363.59674276866235 1272.4238311444724 360.21890336784713 C 1251.1566298026044 356.8410639670319 1248.0543548135697 354.95391190357407 1242.7653281200983 348.8568409886131 C 1237.643815378658 373.7508776652099 1251.319254625326 396.4320531484984 1277.143226338794 402.4952730336991 Z" fill="url(#fh-fill-grad-fh_1777499718901_1)" stroke="none" stroke-width="0" stroke-linecap="round" stroke-linejoin="round" opacity="1"></path></g><g data-fh-obj="fh_1777499718901_2"><path d="M 1240.5199617356548 295.0145970926824 C 1259.925182720741 316.4667146202785 1290.740879422285 325.60165315294336 1327.2244528468211 300.192124362628 C 1363.7080262713569 274.78259557231274 1353.9299143927774 220.92016225749802 1345.8792854321405 219.14316849899043 C 1348.0879295587274 229.09235401524833 1331.178008293299 262.29742025927516 1302.0514039488735 268.60146592082265 C 1278.7155893025695 272.6881976831416 1248.740583791721 268.84403905686935 1245.0873572962962 250.5589647866496 C 1241.434130800871 232.27389051643007 1249.976838219465 231.4861640714724 1249.9276131178678 222.60856064067008 C 1228.4933779438695 246.3371296523015 1223.817783622251 276.55064411162897 1240.5199617356548 295.0145970926824 Z" fill="url(#fh-fill-grad-fh_1777499718901_2)" stroke="none" stroke-width="0" stroke-linecap="round" stroke-linejoin="round" opacity="1"></path></g><g data-fh-obj="fh_1777499718901_3"><path d="M 1281.3688611921493 194.8059016073292 C 1282.2167238871752 206.7759619587261 1297.1870023605013 215.62325196048374 1314.8059158052226 214.5668767532982 C 1329.7971526388749 213.66804885645868 1341.8756739155297 205.888932400659 1344.6227232454046 196.21511548595925 C 1340.5555498278893 198.1638550495516 1335.729313618089 199.43276152615866 1330.4986634192217 199.7463750304692 C 1315.0501959044416 200.67261705571244 1301.9240826956855 192.91521099069968 1301.1806668102458 182.41972266800272 C 1300.9214363459303 178.75992690037907 1302.2020877015357 175.2504593705009 1304.6352279503258 172.1922182017716 C 1290.6092717276724 175.24509461509376 1280.6391012085392 184.5032062568937 1281.3688611921493 194.8059016073292 Z" fill="url(#fh-fill-grad-fh_1777499718901_3)" stroke="none" stroke-width="0" stroke-linecap="round" stroke-linejoin="round" opacity="1"></path></g></g></g>
</svg>